<svg id="visual" viewBox="0 0 960 540" width="960" height="540" xmlns="http://www.w3.org/2000/svg" xmlns:xlink="http://www.w3.org/1999/xlink" version="1.1"><g transform="translate(474.83809835041507 242.38603250953315)"><path d="M94.4 -127.8C118.6 -112.3 132.1 -79.8 146.1 -45.4C160.1 -11 174.7 25.2 165.8 54.3C156.9 83.3 124.6 105.2 93.1 139.9C61.5 174.7 30.8 222.3 -2.1 225.2C-34.9 228 -69.8 186 -91.2 148C-112.6 109.9 -120.5 75.8 -131.1 42.7C-141.7 9.6 -155 -22.6 -157.7 -62.7C-160.4 -102.8 -152.5 -150.9 -124.5 -165.1C-96.4 -179.3 -48.2 -159.7 -6.6 -150.6C35.1 -141.6 70.1 -143.2 94.4 -127.8" fill="#22c55e"></path></g></svg>