<svg id="visual" viewBox="0 0 960 540" width="960" height="540" xmlns="http://www.w3.org/2000/svg" xmlns:xlink="http://www.w3.org/1999/xlink" version="1.1"><rect x="0" y="0" width="960" height="540" fill="#ffffff"></rect><path d="M0 188L20 190.3C40 192.7 80 197.3 120 200.3C160 203.3 200 204.7 240 203.2C280 201.7 320 197.3 360 193.2C400 189 440 185 480 186.8C520 188.7 560 196.3 600 197C640 197.7 680 191.3 720 192.7C760 194 800 203 840 208.7C880 214.3 920 216.7 940 217.8L960 219L960 0L940 0C920 0 880 0 840 0C800 0 760 0 720 0C680 0 640 0 600 0C560 0 520 0 480 0C440 0 400 0 360 0C320 0 280 0 240 0C200 0 160 0 120 0C80 0 40 0 20 0L0 0Z" fill="#22c55e"></path><path d="M0 173L20 168.2C40 163.3 80 153.7 120 155.7C160 157.7 200 171.3 240 177.5C280 183.7 320 182.3 360 177.8C400 173.3 440 165.7 480 162.3C520 159 560 160 600 159.3C640 158.7 680 156.3 720 154.8C760 153.3 800 152.7 840 157.3C880 162 920 172 940 177L960 182L960 0L940 0C920 0 880 0 840 0C800 0 760 0 720 0C680 0 640 0 600 0C560 0 520 0 480 0C440 0 400 0 360 0C320 0 280 0 240 0C200 0 160 0 120 0C80 0 40 0 20 0L0 0Z" fill="#00c2bb"></path><path d="M0 117L20 114.8C40 112.7 80 108.3 120 112.5C160 116.7 200 129.3 240 132.3C280 135.3 320 128.7 360 124.8C400 121 440 120 480 117C520 114 560 109 600 108.2C640 107.3 680 110.7 720 113C760 115.3 800 116.7 840 120C880 123.3 920 128.7 940 131.3L960 134L960 0L940 0C920 0 880 0 840 0C800 0 760 0 720 0C680 0 640 0 600 0C560 0 520 0 480 0C440 0 400 0 360 0C320 0 280 0 240 0C200 0 160 0 120 0C80 0 40 0 20 0L0 0Z" fill="#00b4e0"></path><path d="M0 82L20 83.3C40 84.7 80 87.3 120 88C160 88.7 200 87.3 240 89.7C280 92 320 98 360 96.5C400 95 440 86 480 79.8C520 73.7 560 70.3 600 74C640 77.7 680 88.3 720 89.7C760 91 800 83 840 81.3C880 79.7 920 84.3 940 86.7L960 89L960 0L940 0C920 0 880 0 840 0C800 0 760 0 720 0C680 0 640 0 600 0C560 0 520 0 480 0C440 0 400 0 360 0C320 0 280 0 240 0C200 0 160 0 120 0C80 0 40 0 20 0L0 0Z" fill="#009ff2"></path><path d="M0 40L20 40.8C40 41.7 80 43.3 120 44C160 44.7 200 44.3 240 45C280 45.7 320 47.3 360 46.8C400 46.3 440 43.7 480 42C520 40.3 560 39.7 600 41.2C640 42.7 680 46.3 720 48C760 49.7 800 49.3 840 48.5C880 47.7 920 46.3 940 45.7L960 45L960 0L940 0C920 0 880 0 840 0C800 0 760 0 720 0C680 0 640 0 600 0C560 0 520 0 480 0C440 0 400 0 360 0C320 0 280 0 240 0C200 0 160 0 120 0C80 0 40 0 20 0L0 0Z" fill="#3b82f6"></path></svg>