3
25641<svg id="visual" viewBox="0 0 900 600" width="900" height="600" xmlns="http://www.w3.org/2000/svg" xmlns:xlink="http://www.w3.org/1999/xlink" version="1.1"><rect x="0" y="0" width="900" height="600" fill="#ffffff"></rect><path d="M0 209L18.8 211.7C37.7 214.3 75.3 219.7 112.8 223C150.3 226.3 187.7 227.7 225.2 226C262.7 224.3 300.3 219.7 337.8 215.2C375.3 210.7 412.7 206.3 450.2 208.2C487.7 210 525.3 218 562.8 218.5C600.3 219 637.7 212 675.2 213.7C712.7 215.3 750.3 225.7 787.8 232C825.3 238.3 862.7 240.7 881.3 241.8L900 243L900 0L881.3 0C862.7 0 825.3 0 787.8 0C750.3 0 712.7 0 675.2 0C637.7 0 600.3 0 562.8 0C525.3 0 487.7 0 450.2 0C412.7 0 375.3 0 337.8 0C300.3 0 262.7 0 225.2 0C187.7 0 150.3 0 112.8 0C75.3 0 37.7 0 18.8 0L0 0Z" fill="#3b82f6"></path><path d="M0 192L18.8 186.7C37.7 181.3 75.3 170.7 112.8 173C150.3 175.3 187.7 190.7 225.2 197.5C262.7 204.3 300.3 202.7 337.8 197.7C375.3 192.7 412.7 184.3 450.2 180.7C487.7 177 525.3 178 562.8 177.3C600.3 176.7 637.7 174.3 675.2 172.7C712.7 171 750.3 170 787.8 175C825.3 180 862.7 191 881.3 196.5L900 202L900 0L881.3 0C862.7 0 825.3 0 787.8 0C750.3 0 712.7 0 675.2 0C637.7 0 600.3 0 562.8 0C525.3 0 487.7 0 450.2 0C412.7 0 375.3 0 337.8 0C300.3 0 262.7 0 225.2 0C187.7 0 150.3 0 112.8 0C75.3 0 37.7 0 18.8 0L0 0Z" fill="#009ff2"></path><path d="M0 130L18.8 127.5C37.7 125 75.3 120 112.8 124.7C150.3 129.3 187.7 143.7 225.2 147C262.7 150.3 300.3 142.7 337.8 138.3C375.3 134 412.7 133 450.2 129.7C487.7 126.3 525.3 120.7 562.8 119.8C600.3 119 637.7 123 675.2 125.7C712.7 128.3 750.3 129.7 787.8 133.3C825.3 137 862.7 143 881.3 146L900 149L900 0L881.3 0C862.7 0 825.3 0 787.8 0C750.3 0 712.7 0 675.2 0C637.7 0 600.3 0 562.8 0C525.3 0 487.7 0 450.2 0C412.7 0 375.3 0 337.8 0C300.3 0 262.7 0 225.2 0C187.7 0 150.3 0 112.8 0C75.3 0 37.7 0 18.8 0L0 0Z" fill="#00b4e0"></path><path d="M0 91L18.8 92.5C37.7 94 75.3 97 112.8 97.8C150.3 98.7 187.7 97.3 225.2 100C262.7 102.7 300.3 109.3 337.8 107.7C375.3 106 412.7 96 450.2 89C487.7 82 525.3 78 562.8 82C600.3 86 637.7 98 675.2 99.5C712.7 101 750.3 92 787.8 90.2C825.3 88.3 862.7 93.7 881.3 96.3L900 99L900 0L881.3 0C862.7 0 825.3 0 787.8 0C750.3 0 712.7 0 675.2 0C637.7 0 600.3 0 562.8 0C525.3 0 487.7 0 450.2 0C412.7 0 375.3 0 337.8 0C300.3 0 262.7 0 225.2 0C187.7 0 150.3 0 112.8 0C75.3 0 37.7 0 18.8 0L0 0Z" fill="#00c2bb"></path><path d="M0 45L18.8 45.8C37.7 46.7 75.3 48.3 112.8 49C150.3 49.7 187.7 49.3 225.2 50.2C262.7 51 300.3 53 337.8 52.5C375.3 52 412.7 49 450.2 47.2C487.7 45.3 525.3 44.7 562.8 46.3C600.3 48 637.7 52 675.2 53.8C712.7 55.7 750.3 55.3 787.8 54.3C825.3 53.3 862.7 51.7 881.3 50.8L900 50L900 0L881.3 0C862.7 0 825.3 0 787.8 0C750.3 0 712.7 0 675.2 0C637.7 0 600.3 0 562.8 0C525.3 0 487.7 0 450.2 0C412.7 0 375.3 0 337.8 0C300.3 0 262.7 0 225.2 0C187.7 0 150.3 0 112.8 0C75.3 0 37.7 0 18.8 0L0 0Z" fill="#22c55e"></path></svg>