<?xml version="1.0" encoding="UTF-8"?>
<svg width="700pt" height="700pt" version="1.1" viewBox="0 0 700 700" xmlns="http://www.w3.org/2000/svg" xmlns:xlink="http://www.w3.org/1999/xlink">
 <defs>
  <symbol id="o" overflow="visible">
   <path d="m29.312-1.75c-1.5117 0.78125-3.0898 1.3711-4.7344 1.7656-1.6367 0.40625-3.3398 0.60938-5.1094 0.60938-5.3125 0-9.5273-1.4844-12.641-4.4531-3.1055-2.9688-4.6562-7-4.6562-12.094s1.5508-9.125 4.6562-12.094c3.1133-2.9688 7.3281-4.4531 12.641-4.4531 1.7695 0 3.4727 0.19922 5.1094 0.59375 1.6445 0.39844 3.2227 0.99219 4.7344 1.7812v6.5938c-1.5312-1.0391-3.0391-1.8008-4.5156-2.2812-1.4805-0.48828-3.0391-0.73438-4.6719-0.73438-2.9375 0-5.2461 0.94531-6.9219 2.8281-1.6797 1.875-2.5156 4.4648-2.5156 7.7656 0 3.293 0.83594 5.8828 2.5156 7.7656 1.6758 1.875 3.9844 2.8125 6.9219 2.8125 1.6328 0 3.1914-0.23828 4.6719-0.71875 1.4766-0.48828 2.9844-1.2539 4.5156-2.2969z"/>
  </symbol>
  <symbol id="i" overflow="visible">
   <path d="m21.453-17.406c-0.67969-0.3125-1.3516-0.53906-2.0156-0.6875-0.65625-0.15625-1.3203-0.23438-1.9844-0.23438-1.9688 0-3.4844 0.63281-4.5469 1.8906-1.0547 1.2617-1.5781 3.0703-1.5781 5.4219v11.016h-7.6562v-23.922h7.6562v3.9219c0.97656-1.5625 2.1016-2.7031 3.375-3.4219 1.2812-0.71875 2.8125-1.0781 4.5938-1.0781 0.25 0 0.52344 0.011719 0.82812 0.03125 0.30078 0.023438 0.73438 0.070312 1.2969 0.14062z"/>
  </symbol>
  <symbol id="a" overflow="visible">
   <path d="m27.562-12.031v2.1875h-17.891c0.1875 1.793 0.83203 3.1367 1.9375 4.0312 1.1133 0.89844 2.6719 1.3438 4.6719 1.3438 1.6016 0 3.25-0.23438 4.9375-0.70312 1.6875-0.47656 3.4219-1.2031 5.2031-2.1719v5.8906c-1.8047 0.6875-3.6094 1.2031-5.4219 1.5469-1.8125 0.35156-3.6211 0.53125-5.4219 0.53125-4.3359 0-7.7031-1.0977-10.109-3.2969-2.3984-2.207-3.5938-5.2969-3.5938-9.2656 0-3.9062 1.1758-6.9727 3.5312-9.2031 2.3633-2.2383 5.6094-3.3594 9.7344-3.3594 3.7578 0 6.7695 1.1367 9.0312 3.4062 2.2578 2.2617 3.3906 5.2812 3.3906 9.0625zm-7.8594-2.5312c0-1.457-0.42969-2.6289-1.2812-3.5156-0.84375-0.89453-1.9492-1.3438-3.3125-1.3438-1.4922 0-2.6992 0.41797-3.625 1.25-0.91797 0.83594-1.4922 2.0391-1.7188 3.6094z"/>
  </symbol>
  <symbol id="h" overflow="visible">
   <path d="m14.391-10.766c-1.5938 0-2.793 0.27344-3.5938 0.8125-0.80469 0.54297-1.2031 1.3398-1.2031 2.3906 0 0.96875 0.32031 1.7305 0.96875 2.2812 0.64453 0.54297 1.5469 0.8125 2.7031 0.8125 1.4375 0 2.6445-0.51562 3.625-1.5469 0.98828-1.0312 1.4844-2.3203 1.4844-3.875v-0.875zm11.688-2.8906v13.656h-7.7031v-3.5469c-1.0312 1.4492-2.1875 2.5078-3.4688 3.1719s-2.8398 1-4.6719 1c-2.4805 0-4.4961-0.72266-6.0469-2.1719-1.543-1.4453-2.3125-3.3203-2.3125-5.625 0-2.8125 0.96094-4.8672 2.8906-6.1719 1.9375-1.3125 4.9688-1.9688 9.0938-1.9688h4.5156v-0.60938c0-1.207-0.48047-2.0938-1.4375-2.6562-0.94922-0.5625-2.4375-0.84375-4.4688-0.84375-1.6367 0-3.1562 0.16797-4.5625 0.5-1.4062 0.32422-2.7188 0.8125-3.9375 1.4688v-5.8281c1.6445-0.40625 3.2891-0.70703 4.9375-0.90625 1.6562-0.20703 3.3047-0.3125 4.9531-0.3125 4.3203 0 7.4375 0.85547 9.3438 2.5625 1.9141 1.6992 2.875 4.4609 2.875 8.2812z"/>
  </symbol>
  <symbol id="g" overflow="visible">
   <path d="m12.031-30.719v6.7969h7.875v5.4688h-7.875v10.141c0 1.1172 0.21875 1.8711 0.65625 2.2656 0.4375 0.38672 1.3125 0.57812 2.625 0.57812h3.9375v5.4688h-6.5625c-3.0234 0-5.1641-0.62891-6.4219-1.8906-1.2617-1.2578-1.8906-3.3984-1.8906-6.4219v-10.141h-3.7969v-5.4688h3.7969v-6.7969z"/>
  </symbol>
  <symbol id="f" overflow="visible">
   <path d="m19.953-20.422v-12.812h7.6875v33.234h-7.6875v-3.4531c-1.0547 1.4062-2.2148 2.4375-3.4844 3.0938-1.2734 0.65625-2.7422 0.98438-4.4062 0.98438-2.9492 0-5.3711-1.1719-7.2656-3.5156-1.8867-2.3438-2.8281-5.3594-2.8281-9.0469s0.94141-6.7031 2.8281-9.0469c1.8945-2.3438 4.3164-3.5156 7.2656-3.5156 1.6562 0 3.1172 0.33594 4.3906 1 1.2812 0.65625 2.4453 1.6836 3.5 3.0781zm-5.0469 15.484c1.6445 0 2.8945-0.59766 3.75-1.7969 0.86328-1.1953 1.2969-2.9297 1.2969-5.2031 0-2.2812-0.43359-4.0195-1.2969-5.2188-0.85547-1.1953-2.1055-1.7969-3.75-1.7969-1.625 0-2.8711 0.60156-3.7344 1.7969-0.85547 1.1992-1.2812 2.9375-1.2812 5.2188 0 2.2734 0.42578 4.0078 1.2812 5.2031 0.86328 1.1992 2.1094 1.7969 3.7344 1.7969z"/>
  </symbol>
  <symbol id="e" overflow="visible">
   <path d="m16.406-4.9375c1.6328 0 2.8828-0.59766 3.75-1.7969 0.86328-1.1953 1.2969-2.9297 1.2969-5.2031 0-2.2812-0.43359-4.0195-1.2969-5.2188-0.86719-1.1953-2.1172-1.7969-3.75-1.7969-1.6367 0-2.8906 0.60547-3.7656 1.8125-0.875 1.1992-1.3125 2.9336-1.3125 5.2031 0 2.2617 0.4375 3.9961 1.3125 5.2031 0.875 1.1992 2.1289 1.7969 3.7656 1.7969zm-5.0781-15.484c1.0508-1.3945 2.2188-2.4219 3.5-3.0781 1.2812-0.66406 2.7539-1 4.4219-1 2.9453 0 5.3672 1.1719 7.2656 3.5156 1.8945 2.3438 2.8438 5.3594 2.8438 9.0469s-0.94922 6.7031-2.8438 9.0469c-1.8984 2.3438-4.3203 3.5156-7.2656 3.5156-1.668 0-3.1406-0.33594-4.4219-1s-2.4492-1.6914-3.5-3.0781v3.4531h-7.6562v-33.234h7.6562z"/>
  </symbol>
  <symbol id="d" overflow="visible">
   <path d="m0.53125-23.922h7.6562l6.4219 16.234 5.4688-16.234h7.6562l-10.062 26.188c-1.0117 2.6641-2.1953 4.5234-3.5469 5.5781-1.3438 1.0625-3.1211 1.5938-5.3281 1.5938h-4.4219v-5.0156h2.3906c1.3008 0 2.2422-0.21094 2.8281-0.625 0.59375-0.40625 1.0547-1.1484 1.3906-2.2188l0.20312-0.65625z"/>
  </symbol>
  <symbol id="c" overflow="visible">
   <path d="m23.375-5.8125h-12.859l-2.0312 5.8125h-8.2656l11.812-31.891h9.7969l11.812 31.891h-8.2656zm-10.812-5.9219h8.7344l-4.3594-12.688z"/>
  </symbol>
  <symbol id="n" overflow="visible">
   <path d="m16.797-19.547c1.2891 0 2.2695-0.28125 2.9375-0.84375 0.67578-0.57031 1.0156-1.4141 1.0156-2.5312 0-1.0938-0.33984-1.9258-1.0156-2.5-0.66797-0.58203-1.6484-0.875-2.9375-0.875h-4.5625v6.75zm0.26562 13.953c1.6562 0 2.8984-0.34766 3.7344-1.0469 0.83203-0.69531 1.25-1.7539 1.25-3.1719 0-1.375-0.41797-2.4062-1.25-3.0938-0.82422-0.69531-2.0703-1.0469-3.7344-1.0469h-4.8281v8.3594zm7.6562-11.469c1.7578 0.51172 3.125 1.4609 4.0938 2.8438 0.96875 1.375 1.4531 3.0703 1.4531 5.0781 0 3.0742-1.043 5.3672-3.125 6.875-2.0742 1.5117-5.2305 2.2656-9.4688 2.2656h-13.656v-31.891h12.344c4.4258 0 7.6328 0.67188 9.625 2.0156 1.9883 1.3359 2.9844 3.4766 2.9844 6.4219 0 1.5547-0.36719 2.875-1.0938 3.9688-0.73047 1.0859-1.7812 1.8906-3.1562 2.4219z"/>
  </symbol>
  <symbol id="m" overflow="visible">
   <path d="m12.234-25.672v19.453h2.9531c3.3633 0 5.9297-0.83203 7.7031-2.5 1.7695-1.6641 2.6562-4.0859 2.6562-7.2656 0-3.1562-0.88672-5.5547-2.6562-7.2031-1.7617-1.6562-4.3281-2.4844-7.7031-2.4844zm-8.2188-6.2188h8.6719c4.8438 0 8.4453 0.34375 10.812 1.0312 2.375 0.6875 4.4102 1.8594 6.1094 3.5156 1.4883 1.4375 2.5977 3.1016 3.3281 4.9844 0.72656 1.875 1.0938 4 1.0938 6.375 0 2.4062-0.36719 4.5586-1.0938 6.4531-0.73047 1.8867-1.8398 3.5469-3.3281 4.9844-1.7109 1.6484-3.7617 2.8203-6.1562 3.5156-2.3984 0.6875-5.9844 1.0312-10.766 1.0312h-8.6719z"/>
  </symbol>
  <symbol id="b" overflow="visible">
   <path d="m22.359-23.172v5.7969c-1.6367-0.67578-3.2148-1.1875-4.7344-1.5312-1.5234-0.34375-2.9609-0.51562-4.3125-0.51562-1.4609 0-2.543 0.18359-3.25 0.54688-0.69922 0.36719-1.0469 0.92188-1.0469 1.6719 0 0.61719 0.26562 1.0898 0.79688 1.4219 0.53125 0.32422 1.4883 0.5625 2.875 0.71875l1.3438 0.1875c3.9141 0.5 6.5508 1.3242 7.9062 2.4688 1.3516 1.1367 2.0312 2.9219 2.0312 5.3594 0 2.5547-0.94531 4.4688-2.8281 5.75-1.875 1.2812-4.6797 1.9219-8.4062 1.9219-1.5859 0-3.2188-0.125-4.9062-0.375s-3.4219-0.625-5.2031-1.125v-5.8125c1.5195 0.74219 3.082 1.2969 4.6875 1.6719 1.6016 0.36719 3.2344 0.54688 4.8906 0.54688 1.4883 0 2.6094-0.20312 3.3594-0.60938 0.75781-0.41406 1.1406-1.0312 1.1406-1.8438 0-0.6875-0.26172-1.1953-0.78125-1.5312-0.52344-0.33203-1.5586-0.59375-3.1094-0.78125l-1.3438-0.17188c-3.4062-0.42578-5.793-1.2109-7.1562-2.3594-1.3672-1.1562-2.0469-2.9102-2.0469-5.2656 0-2.5312 0.86719-4.4062 2.6094-5.625 1.7383-1.2266 4.3984-1.8438 7.9844-1.8438 1.4062 0 2.8828 0.10938 4.4375 0.32812 1.5508 0.21094 3.2383 0.54297 5.0625 1z"/>
  </symbol>
  <symbol id="l" overflow="visible">
   <path d="m3.6719-23.922h7.6562v23.922h-7.6562zm0-9.3125h7.6562v6.2344h-7.6562z"/>
  </symbol>
  <symbol id="k" overflow="visible">
   <path d="m19.953-4.0625c-1.0547 1.3984-2.2148 2.4219-3.4844 3.0781-1.2734 0.65625-2.7422 0.98438-4.4062 0.98438-2.918 0-5.3281-1.1484-7.2344-3.4531-1.9062-2.3008-2.8594-5.2266-2.8594-8.7812 0-3.582 0.95312-6.5156 2.8594-8.7969s4.3164-3.4219 7.2344-3.4219c1.6641 0 3.1328 0.32812 4.4062 0.98438 1.2695 0.64844 2.4297 1.6797 3.4844 3.0938v-3.5469h7.6875v21.516c0 3.8438-1.2148 6.7734-3.6406 8.7969-2.4297 2.0312-5.9492 3.0469-10.562 3.0469-1.5 0-2.9492-0.11719-4.3438-0.34375-1.3984-0.21875-2.7969-0.57031-4.2031-1.0469v-5.9531c1.3438 0.76953 2.6562 1.3438 3.9375 1.7188s2.5664 0.5625 3.8594 0.5625c2.5078 0 4.3477-0.54688 5.5156-1.6406 1.1641-1.0938 1.75-2.8047 1.75-5.1406zm-5.0469-14.891c-1.5742 0-2.8047 0.58984-3.6875 1.7656-0.88672 1.168-1.3281 2.8203-1.3281 4.9531 0 2.1875 0.42578 3.8516 1.2812 4.9844 0.85156 1.1367 2.0977 1.7031 3.7344 1.7031 1.5938 0 2.832-0.58203 3.7188-1.75 0.88281-1.1758 1.3281-2.8203 1.3281-4.9375 0-2.1328-0.44531-3.7852-1.3281-4.9531-0.88672-1.1758-2.125-1.7656-3.7188-1.7656z"/>
  </symbol>
  <symbol id="j" overflow="visible">
   <path d="m27.734-14.562v14.562h-7.7031v-11.156c0-2.0625-0.046875-3.4844-0.14062-4.2656-0.085937-0.78125-0.24219-1.3594-0.46875-1.7344-0.30469-0.5-0.71094-0.88281-1.2188-1.1562-0.51172-0.28125-1.0938-0.42188-1.75-0.42188-1.5938 0-2.8516 0.61719-3.7656 1.8438-0.90625 1.2305-1.3594 2.9375-1.3594 5.125v11.766h-7.6562v-23.922h7.6562v3.5c1.1445-1.3945 2.3633-2.4219 3.6562-3.0781 1.3008-0.66406 2.7383-1 4.3125-1 2.7578 0 4.8516 0.85156 6.2812 2.5469 1.4375 1.6875 2.1562 4.1523 2.1562 7.3906z"/>
  </symbol>
 </defs>
 <g>
  <path d="m561.75 397.6v61.773c0 32.727-51.887 44.273-96.336 44.273-44.363 0-96.25-11.551-96.25-44.273v-61.773c0-17.938 10.938-33.949 27.211-39.898 6.3008-2.2734 12.863-2.8008 19.512-1.6641 2.9766 0.52344 9.8008 1.75 14.176-9.7109-3.2383-1.75-6.0391-5.25-8.3984-9.625-3.5859-6.6484-5.4258-14.352-5.4258-22.227v-27.648c0-11.812 3.8516-21.262 11.461-28.262 13.301-12.25 33.602-11.898 37.711-11.637 4.1992-0.26172 24.5-0.61328 37.801 11.637 7.6133 7 11.461 16.449 11.461 28.262v27.648c0 7.875-1.8359 15.574-5.3359 22.137-2.4492 4.4609-5.25 7.9609-8.3984 10.324 2.1875 5.4258 5.5117 8.75 9.7109 9.2734h0.17578c1.1367 0.17578 2.625 0.085937 4.2891-0.17578 6.5625-1.1367 13.125-0.61328 19.426 1.6641 16.273 5.9492 27.211 21.965 27.211 39.902z"/>
  <path d="m303.62 357.7c-6.3008-2.2734-12.863-2.8008-19.512-1.6641-2.9766 0.52344-9.8008 1.75-14.086-9.1016 3.1484-2.3633 5.9492-5.8633 8.3984-10.324 3.5-6.5625 5.3359-14.262 5.3359-22.137v-27.648c0-11.812-3.8516-21.262-11.461-28.262-13.301-12.25-33.602-11.898-37.711-11.637-4.1992-0.26172-24.5-0.61328-37.801 11.637-7.6133 7-11.461 16.449-11.461 28.262v27.648c0 7.875 1.8359 15.574 5.4258 22.227 2.3633 4.375 5.1641 7.875 8.3984 9.625-2.2734 6.0391-5.6016 9.3633-9.8008 9.8867h-0.17578c-1.1367 0.17578-2.625 0.085937-4.1992-0.17578-6.6484-1.1367-13.211-0.61328-19.512 1.6641-16.273 5.9492-27.211 21.961-27.211 39.898v61.773c0 32.727 51.887 44.273 96.336 44.273 44.363 0 96.25-11.551 96.25-44.273v-61.773c-0.003906-17.934-10.941-33.949-27.215-39.898zm9.7109 101.68c0 14.789-35.352 26.773-78.75 26.773-43.488 0-78.836-11.988-78.836-26.773v-61.773c0-10.586 6.3008-20.039 15.664-23.363 2.2734-0.875 4.5508-1.3125 6.9141-1.3125 1.2266 0 2.4492 0.17578 3.6758 0.35156 3.5 0.61328 6.6484 0.69922 9.625 0.26172 10.852-1.3984 19.336-8.8359 23.887-21.086 2.625-6.8242 0.26172-14.613-5.8633-19.336-0.61328-0.52344-1.9258-1.75-3.5-4.6367-2.1875-4.1133-3.3242-8.9258-3.3242-14v-27.648c0-6.7383 1.9258-11.812 5.7734-15.398 7.3516-6.7383 20.738-7.3516 25.199-7h1.3984c4.5508-0.35156 17.938 0.26172 25.289 7 3.8516 3.5859 5.7734 8.6641 5.7734 15.398v27.648c0 5.0742-1.1367 9.8867-3.3242 13.914-1.5742 2.9766-2.8867 4.1992-3.5859 4.7266-6.0391 4.7266-8.3984 12.512-5.7734 19.426 6.0391 15.836 18.289 23.449 33.602 20.738 3.5859-0.61328 7.0859-0.35156 10.5 0.96094 9.3633 3.3242 15.664 12.773 15.664 23.363z"/>
  <path d="m541.36 105.52c-11.898-11.898-27.648-18.375-44.449-18.375h-82.863c-34.738 0-62.914 28.176-62.914 62.914 0 16.711 6.5625 32.551 18.461 44.449 11.898 11.898 27.648 18.461 44.449 18.461h78.051l38.414 21.438c1.3125 0.78906 2.8008 1.1367 4.2891 1.1367s3.0625-0.4375 4.375-1.2266c2.7109-1.5742 4.375-4.4609 4.375-7.5234v-34.477c10.5-11.637 16.273-26.512 16.273-42.262 0-16.797-6.5625-32.547-18.461-44.535zm-12.688 77c-1.75 1.6641-2.625 3.9375-2.625 6.3008v23.012l-27.477-15.312c-1.2266-0.69922-2.7109-1.0508-4.1992-1.0508h-80.324c-12.074 0-23.539-4.7266-32.113-13.301-8.5742-8.6641-13.301-20.039-13.301-32.113 0-25.023 20.387-45.414 45.414-45.414h82.863c12.074 0 23.539 4.7266 32.113 13.211 8.5742 8.6641 13.301 20.039 13.301 32.199-0.003906 12.258-4.9023 23.809-13.652 32.469z"/>
  <path d="m440.57 139.89h57.094c4.8281 0 8.75-3.9219 8.75-8.75s-3.9219-8.75-8.75-8.75h-57.094c-4.8281 0-8.75 3.9219-8.75 8.75 0 4.832 3.9219 8.75 8.75 8.75z"/>
  <path d="m414.05 173.05h83.613c4.8281 0 8.75-3.9219 8.75-8.75s-3.9219-8.75-8.75-8.75h-83.613c-4.8281 0-8.75 3.9219-8.75 8.75 0 4.832 3.918 8.75 8.75 8.75z"/>
  <path d="m227.41 56.352c-46.727 0-84.699 37.887-84.699 84.523 0 19.336 6.5625 37.977 18.551 52.938v34.477c0 3.1484 1.6641 6.0391 4.375 7.6133 1.3125 0.78906 2.8867 1.1367 4.375 1.1367s2.9766-0.35156 4.2891-1.0508l26.336-14.789c8.5742 2.8867 17.586 4.375 26.773 4.375 46.637 0 84.523-37.977 84.523-84.699 0-46.637-37.887-84.523-84.523-84.523zm-21.352 49.785h42.613c4.8125 0 8.75 3.9375 8.75 8.75s-3.9375 8.75-8.75 8.75h-42.613c-4.8984 0-8.75-3.9375-8.75-8.75s3.8516-8.75 8.75-8.75zm54.074 52.5h-65.625c-4.8125 0-8.75-3.9375-8.75-8.75s3.9375-8.75 8.75-8.75h65.625c4.8125 0 8.75 3.9375 8.75 8.75s-3.9375 8.75-8.75 8.75z"/>
  <use x="70" y="691.25" xlink:href="#o"/>
  <use x="102.109375" y="691.25" xlink:href="#i"/>
  <use x="123.683594" y="691.25" xlink:href="#a"/>
  <use x="153.355469" y="691.25" xlink:href="#h"/>
  <use x="182.878906" y="691.25" xlink:href="#g"/>
  <use x="203.792969" y="691.25" xlink:href="#a"/>
  <use x="233.464844" y="691.25" xlink:href="#f"/>
  <use x="280.011719" y="691.25" xlink:href="#e"/>
  <use x="311.328125" y="691.25" xlink:href="#d"/>
  <use x="355.078125" y="691.25" xlink:href="#c"/>
  <use x="388.9375" y="691.25" xlink:href="#n"/>
  <use x="437.515625" y="691.25" xlink:href="#m"/>
  <use x="473.832031" y="691.25" xlink:href="#a"/>
  <use x="503.503906" y="691.25" xlink:href="#b"/>
  <use x="529.546875" y="691.25" xlink:href="#l"/>
  <use x="544.542969" y="691.25" xlink:href="#k"/>
  <use x="575.859375" y="691.25" xlink:href="#j"/>
  <use x="607.003906" y="691.25" xlink:href="#b"/>
 </g>
</svg>
